%FSLAX23Y23*%
%MOIN*%
G70*
G01*
G75*
G04 Layer_Color=8388736*
%ADD10C,0.010*%
%ADD11C,0.024*%
%ADD12C,0.006*%
%ADD13C,0.079*%
%ADD14C,0.085*%
%ADD15C,0.071*%
%ADD16O,0.067X0.024*%
%ADD17O,0.079X0.024*%
%ADD18R,0.075X0.157*%
%ADD19R,0.059X0.110*%
%ADD20R,0.240X0.248*%
%ADD21R,0.063X0.071*%
%ADD22R,0.051X0.039*%
%ADD23R,0.102X0.043*%
%ADD24R,0.043X0.102*%
%ADD25R,0.024X0.033*%
%ADD26R,0.033X0.024*%
G04:AMPARAMS|DCode=27|XSize=71mil|YSize=118mil|CornerRadius=0mil|HoleSize=0mil|Usage=FLASHONLY|Rotation=0.000|XOffset=0mil|YOffset=0mil|HoleType=Round|Shape=Octagon|*
%AMOCTAGOND27*
4,1,8,-0.018,0.059,0.018,0.059,0.035,0.041,0.035,-0.041,0.018,-0.059,-0.018,-0.059,-0.035,-0.041,-0.035,0.041,-0.018,0.059,0.0*
%
%ADD27OCTAGOND27*%

%ADD28R,0.020X0.047*%
%ADD29R,0.020X0.063*%
%ADD30R,2.050X0.035*%
%ADD31R,0.430X0.030*%
%ADD32R,0.025X0.070*%
%ADD33R,0.025X0.060*%
%ADD34R,0.430X0.160*%
%ADD35R,0.335X0.160*%
%ADD36R,0.170X0.110*%
%ADD37R,0.040X0.150*%
%ADD38R,0.045X0.120*%
%ADD39R,1.490X0.055*%
%ADD40R,0.055X0.160*%
%ADD41R,0.060X0.410*%
%ADD42R,5.035X0.055*%
%ADD43R,0.050X0.485*%
%ADD44R,0.025X0.245*%
%ADD45R,0.025X0.285*%
%ADD46R,0.035X0.170*%
%ADD47R,0.035X0.185*%
%ADD48R,0.325X0.025*%
%ADD49R,0.085X1.180*%
%ADD50R,1.300X0.040*%
%ADD51R,0.045X0.150*%
%ADD52C,0.087*%
%ADD53C,0.093*%
%ADD54C,0.079*%
D52*
X4705Y2165D02*
D03*
Y2265D02*
D03*
Y2365D02*
D03*
Y2465D02*
D03*
Y2565D02*
D03*
X5030Y3800D02*
D03*
X4930D02*
D03*
X4830D02*
D03*
X4730D02*
D03*
X4630D02*
D03*
X4530D02*
D03*
X1679Y3575D02*
D03*
X1681Y3375D02*
D03*
D53*
X8105Y1750D02*
D03*
X8005D02*
D03*
X7905D02*
D03*
X7805D02*
D03*
X7705D02*
D03*
X7605D02*
D03*
X7505D02*
D03*
X7405D02*
D03*
X7305D02*
D03*
X7205D02*
D03*
X8105Y2980D02*
D03*
X8005D02*
D03*
X7905D02*
D03*
X7805D02*
D03*
X7705D02*
D03*
X7605D02*
D03*
X7505D02*
D03*
X7405D02*
D03*
X7305D02*
D03*
X7205D02*
D03*
X6925Y1750D02*
D03*
X6825D02*
D03*
X6725D02*
D03*
X6625D02*
D03*
X6525D02*
D03*
X6425D02*
D03*
X6325D02*
D03*
X6225D02*
D03*
X6125D02*
D03*
X6025D02*
D03*
X6925Y2980D02*
D03*
X6825D02*
D03*
X6725D02*
D03*
X6625D02*
D03*
X6525D02*
D03*
X6425D02*
D03*
X6325D02*
D03*
X6225D02*
D03*
X6125D02*
D03*
X6025D02*
D03*
X5745Y1750D02*
D03*
X5645D02*
D03*
X5545D02*
D03*
X5445D02*
D03*
X5345D02*
D03*
X5245D02*
D03*
X5145D02*
D03*
X5045D02*
D03*
X4945D02*
D03*
X4845D02*
D03*
X5745Y2980D02*
D03*
X5645D02*
D03*
X5545D02*
D03*
X5445D02*
D03*
X5345D02*
D03*
X5245D02*
D03*
X5145D02*
D03*
X5045D02*
D03*
X4945D02*
D03*
X4845D02*
D03*
X4565Y1750D02*
D03*
X4465D02*
D03*
X4365D02*
D03*
X4265D02*
D03*
X4165D02*
D03*
X4065D02*
D03*
X3965D02*
D03*
X3865D02*
D03*
X3765D02*
D03*
X3665D02*
D03*
X4565Y2980D02*
D03*
X4465D02*
D03*
X4365D02*
D03*
X4265D02*
D03*
X4165D02*
D03*
X4065D02*
D03*
X3965D02*
D03*
X3865D02*
D03*
X3765D02*
D03*
X3665D02*
D03*
X3385Y1750D02*
D03*
X3285D02*
D03*
X3185D02*
D03*
X3085D02*
D03*
X2985D02*
D03*
X2885D02*
D03*
X2785D02*
D03*
X2685D02*
D03*
X2585D02*
D03*
X2485D02*
D03*
X3385Y2980D02*
D03*
X3285D02*
D03*
X3185D02*
D03*
X3085D02*
D03*
X2985D02*
D03*
X2885D02*
D03*
X2785D02*
D03*
X2685D02*
D03*
X2585D02*
D03*
X2485D02*
D03*
X2205Y1750D02*
D03*
X2105D02*
D03*
X2005D02*
D03*
X1905D02*
D03*
X1805D02*
D03*
X1705D02*
D03*
X1605D02*
D03*
X1505D02*
D03*
X1405D02*
D03*
X1305D02*
D03*
X2205Y2980D02*
D03*
X2105D02*
D03*
X2005D02*
D03*
X1905D02*
D03*
X1805D02*
D03*
X1705D02*
D03*
X1605D02*
D03*
X1505D02*
D03*
X1405D02*
D03*
X1305D02*
D03*
D54*
X2361Y1815D02*
D03*
X7013Y1710D02*
D03*
X3827Y1888D02*
D03*
X3742Y1873D02*
D03*
X3965Y1579D02*
D03*
X6021Y1474D02*
D03*
X4619Y1991D02*
D03*
X7230Y3105D02*
D03*
X3969Y2863D02*
D03*
X6769Y3326D02*
D03*
X4693Y3048D02*
D03*
X4637Y3428D02*
D03*
X3462Y3196D02*
D03*
X6477Y2695D02*
D03*
X2144Y2096D02*
D03*
X1517Y2095D02*
D03*
X6938Y3680D02*
D03*
X6236Y3593D02*
D03*
X5231Y3239D02*
D03*
X5287Y2893D02*
D03*
X3889Y2458D02*
D03*
X4108Y2239D02*
D03*
X1998Y2242D02*
D03*
X2678Y2350D02*
D03*
X3660Y2835D02*
D03*
X3677D02*
D03*
X3470Y3758D02*
D03*
X3483Y1964D02*
D03*
X2589Y2527D02*
D03*
X5852Y2631D02*
D03*
X1305Y3567D02*
D03*
X4471Y3353D02*
D03*
X4776Y3196D02*
D03*
X5644Y3206D02*
D03*
X3339Y3429D02*
D03*
X3961Y3562D02*
D03*
X3718Y3272D02*
D03*
X4438Y3540D02*
D03*
X5945Y3360D02*
D03*
X5174Y3304D02*
D03*
X5600Y3417D02*
D03*
X6293Y3413D02*
D03*
X6087Y3438D02*
D03*
X6510Y3413D02*
D03*
X1768Y2442D02*
D03*
X2478D02*
D03*
X6358Y2241D02*
D03*
X6064Y2642D02*
D03*
X3835Y3454D02*
D03*
X2688Y3614D02*
D03*
X5565Y3239D02*
D03*
X6430Y3433D02*
D03*
X5628Y2794D02*
D03*
X3089Y2607D02*
D03*
X5122Y2801D02*
D03*
X3185Y3877D02*
D03*
X4458Y2742D02*
D03*
X3022Y2743D02*
D03*
X3393Y2836D02*
D03*
X6769Y3414D02*
D03*
X7573Y2848D02*
D03*
X5948Y2824D02*
D03*
X4541Y2678D02*
D03*
X3058Y2894D02*
D03*
X2588Y2821D02*
D03*
X4133Y1527D02*
D03*
X7620Y1848D02*
D03*
X3285Y2002D02*
D03*
X3297Y1428D02*
D03*
X5524Y1628D02*
D03*
X5045Y1915D02*
D03*
X3993D02*
D03*
X5933Y1868D02*
D03*
X6449Y1867D02*
D03*
X4322Y1628D02*
D03*
X3378Y1507D02*
D03*
X3329Y1506D02*
D03*
X2927Y1592D02*
D03*
X7647D02*
D03*
X5201Y1532D02*
D03*
X3662Y3547D02*
D03*
X3440Y3876D02*
D03*
X3367Y3551D02*
D03*
X3669Y3353D02*
D03*
X6285Y2290D02*
D03*
X2833Y2828D02*
D03*
X2800Y2710D02*
D03*
X4780Y1545D02*
D03*
X7435Y2585D02*
D03*
X7180Y2750D02*
D03*
X3575Y3725D02*
D03*
X5012Y3967D02*
D03*
M02*
