%FSLAX23Y23*%
%MOIN*%
G70*
G01*
G75*
%ADD10C,0.010*%
%ADD11C,0.024*%
%ADD12C,0.006*%
%ADD13C,0.079*%
%ADD14C,0.085*%
%ADD15C,0.071*%
%ADD16O,0.067X0.024*%
%ADD17O,0.079X0.024*%
%ADD18R,0.075X0.157*%
%ADD19R,0.059X0.110*%
%ADD20R,0.240X0.248*%
%ADD21R,0.063X0.071*%
%ADD22R,0.051X0.039*%
%ADD23R,0.102X0.043*%
%ADD24R,0.043X0.102*%
%ADD25R,0.024X0.033*%
%ADD26R,0.033X0.024*%
G04:AMPARAMS|DCode=27|XSize=71mil|YSize=118mil|CornerRadius=0mil|HoleSize=0mil|Usage=FLASHONLY|Rotation=0.000|XOffset=0mil|YOffset=0mil|HoleType=Round|Shape=Octagon|*
%AMOCTAGOND27*
4,1,8,-0.018,0.059,0.018,0.059,0.035,0.041,0.035,-0.041,0.018,-0.059,-0.018,-0.059,-0.035,-0.041,-0.035,0.041,-0.018,0.059,0.0*
%
%ADD27OCTAGOND27*%

%ADD28R,0.020X0.047*%
%ADD29R,0.020X0.063*%
%ADD30R,2.050X0.035*%
%ADD31R,0.430X0.030*%
%ADD32R,0.025X0.070*%
%ADD33R,0.025X0.060*%
%ADD34R,0.430X0.160*%
%ADD35R,0.335X0.160*%
%ADD36R,0.170X0.110*%
%ADD37R,0.040X0.150*%
%ADD38R,0.045X0.120*%
%ADD39R,1.490X0.055*%
%ADD40R,0.055X0.160*%
%ADD41R,0.060X0.410*%
%ADD42R,5.035X0.055*%
%ADD43R,0.050X0.485*%
%ADD44R,0.025X0.245*%
%ADD45R,0.025X0.285*%
%ADD46R,0.035X0.170*%
%ADD47R,0.035X0.185*%
%ADD48R,0.325X0.025*%
%ADD49R,0.085X1.180*%
%ADD50R,1.300X0.040*%
%ADD51R,0.045X0.150*%
%ADD52C,0.087*%
%ADD53C,0.093*%
%ADD54C,0.079*%
%ADD55O,0.075X0.032*%
%ADD56O,0.087X0.032*%
%ADD57R,0.083X0.165*%
%ADD58R,0.067X0.118*%
%ADD59R,0.248X0.256*%
%ADD60R,0.071X0.079*%
%ADD61R,0.059X0.047*%
%ADD62R,0.110X0.051*%
%ADD63R,0.051X0.110*%
%ADD64R,0.032X0.041*%
%ADD65R,0.041X0.032*%
G04:AMPARAMS|DCode=66|XSize=79mil|YSize=126mil|CornerRadius=0mil|HoleSize=0mil|Usage=FLASHONLY|Rotation=0.000|XOffset=0mil|YOffset=0mil|HoleType=Round|Shape=Octagon|*
%AMOCTAGOND66*
4,1,8,-0.020,0.063,0.020,0.063,0.039,0.043,0.039,-0.043,0.020,-0.063,-0.020,-0.063,-0.039,-0.043,-0.039,0.043,-0.020,0.063,0.0*
%
%ADD66OCTAGOND66*%

%ADD67R,0.028X0.055*%
%ADD68R,0.028X0.071*%
%ADD69C,0.005*%
%ADD70C,0.007*%
D69*
X4687Y2165D02*
X4723D01*
X4705Y2147D02*
Y2183D01*
X4687Y2265D02*
X4723D01*
X4705Y2247D02*
Y2283D01*
X4687Y2365D02*
X4723D01*
X4705Y2347D02*
Y2383D01*
X4687Y2465D02*
X4723D01*
X4705Y2447D02*
Y2483D01*
X4687Y2565D02*
X4723D01*
X4705Y2547D02*
Y2583D01*
X5012Y3800D02*
X5048D01*
X5030Y3782D02*
Y3818D01*
X4912Y3800D02*
X4948D01*
X4930Y3782D02*
Y3818D01*
X4812Y3800D02*
X4848D01*
X4830Y3782D02*
Y3818D01*
X4712Y3800D02*
X4748D01*
X4730Y3782D02*
Y3818D01*
X4612Y3800D02*
X4648D01*
X4630Y3782D02*
Y3818D01*
X4512Y3800D02*
X4548D01*
X4530Y3782D02*
Y3818D01*
X1669Y3575D02*
X1689D01*
X1679Y3565D02*
Y3585D01*
X1671Y3375D02*
X1691D01*
X1681Y3365D02*
Y3385D01*
X8090Y1750D02*
X8120D01*
X8105Y1735D02*
Y1765D01*
X7990Y1750D02*
X8020D01*
X8005Y1735D02*
Y1765D01*
X7890Y1750D02*
X7920D01*
X7905Y1735D02*
Y1765D01*
X7790Y1750D02*
X7820D01*
X7805Y1735D02*
Y1765D01*
X7690Y1750D02*
X7720D01*
X7705Y1735D02*
Y1765D01*
X7590Y1750D02*
X7620D01*
X7605Y1735D02*
Y1765D01*
X7490Y1750D02*
X7520D01*
X7505Y1735D02*
Y1765D01*
X7390Y1750D02*
X7420D01*
X7405Y1735D02*
Y1765D01*
X7290Y1750D02*
X7320D01*
X7305Y1735D02*
Y1765D01*
X7190Y1750D02*
X7220D01*
X7205Y1735D02*
Y1765D01*
X8090Y2980D02*
X8120D01*
X8105Y2965D02*
Y2995D01*
X7990Y2980D02*
X8020D01*
X8005Y2965D02*
Y2995D01*
X7890Y2980D02*
X7920D01*
X7905Y2965D02*
Y2995D01*
X7790Y2980D02*
X7820D01*
X7805Y2965D02*
Y2995D01*
X7690Y2980D02*
X7720D01*
X7705Y2965D02*
Y2995D01*
X7590Y2980D02*
X7620D01*
X7605Y2965D02*
Y2995D01*
X7490Y2980D02*
X7520D01*
X7505Y2965D02*
Y2995D01*
X7390Y2980D02*
X7420D01*
X7405Y2965D02*
Y2995D01*
X7290Y2980D02*
X7320D01*
X7305Y2965D02*
Y2995D01*
X7190Y2980D02*
X7220D01*
X7205Y2965D02*
Y2995D01*
X6910Y1750D02*
X6940D01*
X6925Y1735D02*
Y1765D01*
X6810Y1750D02*
X6840D01*
X6825Y1735D02*
Y1765D01*
X6710Y1750D02*
X6740D01*
X6725Y1735D02*
Y1765D01*
X6610Y1750D02*
X6640D01*
X6625Y1735D02*
Y1765D01*
X6510Y1750D02*
X6540D01*
X6525Y1735D02*
Y1765D01*
X6410Y1750D02*
X6440D01*
X6425Y1735D02*
Y1765D01*
X6310Y1750D02*
X6340D01*
X6325Y1735D02*
Y1765D01*
X6210Y1750D02*
X6240D01*
X6225Y1735D02*
Y1765D01*
X6110Y1750D02*
X6140D01*
X6125Y1735D02*
Y1765D01*
X6010Y1750D02*
X6040D01*
X6025Y1735D02*
Y1765D01*
X6910Y2980D02*
X6940D01*
X6925Y2965D02*
Y2995D01*
X6810Y2980D02*
X6840D01*
X6825Y2965D02*
Y2995D01*
X6710Y2980D02*
X6740D01*
X6725Y2965D02*
Y2995D01*
X6610Y2980D02*
X6640D01*
X6625Y2965D02*
Y2995D01*
X6510Y2980D02*
X6540D01*
X6525Y2965D02*
Y2995D01*
X6410Y2980D02*
X6440D01*
X6425Y2965D02*
Y2995D01*
X6310Y2980D02*
X6340D01*
X6325Y2965D02*
Y2995D01*
X6210Y2980D02*
X6240D01*
X6225Y2965D02*
Y2995D01*
X6110Y2980D02*
X6140D01*
X6125Y2965D02*
Y2995D01*
X6010Y2980D02*
X6040D01*
X6025Y2965D02*
Y2995D01*
X5730Y1750D02*
X5760D01*
X5745Y1735D02*
Y1765D01*
X5630Y1750D02*
X5660D01*
X5645Y1735D02*
Y1765D01*
X5530Y1750D02*
X5560D01*
X5545Y1735D02*
Y1765D01*
X5430Y1750D02*
X5460D01*
X5445Y1735D02*
Y1765D01*
X5330Y1750D02*
X5360D01*
X5345Y1735D02*
Y1765D01*
X5230Y1750D02*
X5260D01*
X5245Y1735D02*
Y1765D01*
X5130Y1750D02*
X5160D01*
X5145Y1735D02*
Y1765D01*
X5030Y1750D02*
X5060D01*
X5045Y1735D02*
Y1765D01*
X4930Y1750D02*
X4960D01*
X4945Y1735D02*
Y1765D01*
X4830Y1750D02*
X4860D01*
X4845Y1735D02*
Y1765D01*
X5730Y2980D02*
X5760D01*
X5745Y2965D02*
Y2995D01*
X5630Y2980D02*
X5660D01*
X5645Y2965D02*
Y2995D01*
X5530Y2980D02*
X5560D01*
X5545Y2965D02*
Y2995D01*
X5430Y2980D02*
X5460D01*
X5445Y2965D02*
Y2995D01*
X5330Y2980D02*
X5360D01*
X5345Y2965D02*
Y2995D01*
X5230Y2980D02*
X5260D01*
X5245Y2965D02*
Y2995D01*
X5130Y2980D02*
X5160D01*
X5145Y2965D02*
Y2995D01*
X5030Y2980D02*
X5060D01*
X5045Y2965D02*
Y2995D01*
X4930Y2980D02*
X4960D01*
X4945Y2965D02*
Y2995D01*
X4830Y2980D02*
X4860D01*
X4845Y2965D02*
Y2995D01*
X4550Y1750D02*
X4580D01*
X4565Y1735D02*
Y1765D01*
X4450Y1750D02*
X4480D01*
X4465Y1735D02*
Y1765D01*
X4350Y1750D02*
X4380D01*
X4365Y1735D02*
Y1765D01*
X4250Y1750D02*
X4280D01*
X4265Y1735D02*
Y1765D01*
X4150Y1750D02*
X4180D01*
X4165Y1735D02*
Y1765D01*
X4050Y1750D02*
X4080D01*
X4065Y1735D02*
Y1765D01*
X3950Y1750D02*
X3980D01*
X3965Y1735D02*
Y1765D01*
X3850Y1750D02*
X3880D01*
X3865Y1735D02*
Y1765D01*
X3750Y1750D02*
X3780D01*
X3765Y1735D02*
Y1765D01*
X3650Y1750D02*
X3680D01*
X3665Y1735D02*
Y1765D01*
X4550Y2980D02*
X4580D01*
X4565Y2965D02*
Y2995D01*
X4450Y2980D02*
X4480D01*
X4465Y2965D02*
Y2995D01*
X4350Y2980D02*
X4380D01*
X4365Y2965D02*
Y2995D01*
X4250Y2980D02*
X4280D01*
X4265Y2965D02*
Y2995D01*
X4150Y2980D02*
X4180D01*
X4165Y2965D02*
Y2995D01*
X4050Y2980D02*
X4080D01*
X4065Y2965D02*
Y2995D01*
X3950Y2980D02*
X3980D01*
X3965Y2965D02*
Y2995D01*
X3850Y2980D02*
X3880D01*
X3865Y2965D02*
Y2995D01*
X3750Y2980D02*
X3780D01*
X3765Y2965D02*
Y2995D01*
X3650Y2980D02*
X3680D01*
X3665Y2965D02*
Y2995D01*
X3370Y1750D02*
X3400D01*
X3385Y1735D02*
Y1765D01*
X3270Y1750D02*
X3300D01*
X3285Y1735D02*
Y1765D01*
X3170Y1750D02*
X3200D01*
X3185Y1735D02*
Y1765D01*
X3070Y1750D02*
X3100D01*
X3085Y1735D02*
Y1765D01*
X2970Y1750D02*
X3000D01*
X2985Y1735D02*
Y1765D01*
X2870Y1750D02*
X2900D01*
X2885Y1735D02*
Y1765D01*
X2770Y1750D02*
X2800D01*
X2785Y1735D02*
Y1765D01*
X2670Y1750D02*
X2700D01*
X2685Y1735D02*
Y1765D01*
X2570Y1750D02*
X2600D01*
X2585Y1735D02*
Y1765D01*
X2470Y1750D02*
X2500D01*
X2485Y1735D02*
Y1765D01*
X3370Y2980D02*
X3400D01*
X3385Y2965D02*
Y2995D01*
X3270Y2980D02*
X3300D01*
X3285Y2965D02*
Y2995D01*
X3170Y2980D02*
X3200D01*
X3185Y2965D02*
Y2995D01*
X3070Y2980D02*
X3100D01*
X3085Y2965D02*
Y2995D01*
X2970Y2980D02*
X3000D01*
X2985Y2965D02*
Y2995D01*
X2870Y2980D02*
X2900D01*
X2885Y2965D02*
Y2995D01*
X2770Y2980D02*
X2800D01*
X2785Y2965D02*
Y2995D01*
X2670Y2980D02*
X2700D01*
X2685Y2965D02*
Y2995D01*
X2570Y2980D02*
X2600D01*
X2585Y2965D02*
Y2995D01*
X2470Y2980D02*
X2500D01*
X2485Y2965D02*
Y2995D01*
X2190Y1750D02*
X2220D01*
X2205Y1735D02*
Y1765D01*
X2090Y1750D02*
X2120D01*
X2105Y1735D02*
Y1765D01*
X1990Y1750D02*
X2020D01*
X2005Y1735D02*
Y1765D01*
X1890Y1750D02*
X1920D01*
X1905Y1735D02*
Y1765D01*
X1790Y1750D02*
X1820D01*
X1805Y1735D02*
Y1765D01*
X1690Y1750D02*
X1720D01*
X1705Y1735D02*
Y1765D01*
X1590Y1750D02*
X1620D01*
X1605Y1735D02*
Y1765D01*
X1490Y1750D02*
X1520D01*
X1505Y1735D02*
Y1765D01*
X1390Y1750D02*
X1420D01*
X1405Y1735D02*
Y1765D01*
X1290Y1750D02*
X1320D01*
X1305Y1735D02*
Y1765D01*
X2190Y2980D02*
X2220D01*
X2205Y2965D02*
Y2995D01*
X2090Y2980D02*
X2120D01*
X2105Y2965D02*
Y2995D01*
X1990Y2980D02*
X2020D01*
X2005Y2965D02*
Y2995D01*
X1890Y2980D02*
X1920D01*
X1905Y2965D02*
Y2995D01*
X1790Y2980D02*
X1820D01*
X1805Y2965D02*
Y2995D01*
X1690Y2980D02*
X1720D01*
X1705Y2965D02*
Y2995D01*
X1590Y2980D02*
X1620D01*
X1605Y2965D02*
Y2995D01*
X1490Y2980D02*
X1520D01*
X1505Y2965D02*
Y2995D01*
X1390Y2980D02*
X1420D01*
X1405Y2965D02*
Y2995D01*
X1290Y2980D02*
X1320D01*
X1305Y2965D02*
Y2995D01*
X2347Y1815D02*
X2375D01*
X2361Y1801D02*
Y1829D01*
X6999Y1710D02*
X7027D01*
X7013Y1696D02*
Y1724D01*
X3813Y1888D02*
X3841D01*
X3827Y1874D02*
Y1902D01*
X3728Y1873D02*
X3756D01*
X3742Y1859D02*
Y1887D01*
X3951Y1579D02*
X3979D01*
X3965Y1565D02*
Y1593D01*
X6007Y1474D02*
X6035D01*
X6021Y1460D02*
Y1488D01*
X4605Y1991D02*
X4633D01*
X4619Y1977D02*
Y2005D01*
X7216Y3105D02*
X7244D01*
X7230Y3091D02*
Y3119D01*
X3955Y2863D02*
X3983D01*
X3969Y2849D02*
Y2877D01*
X6755Y3326D02*
X6783D01*
X6769Y3312D02*
Y3340D01*
X4679Y3048D02*
X4707D01*
X4693Y3034D02*
Y3062D01*
X4623Y3428D02*
X4651D01*
X4637Y3414D02*
Y3442D01*
X3448Y3196D02*
X3476D01*
X3462Y3182D02*
Y3210D01*
X6463Y2695D02*
X6491D01*
X6477Y2681D02*
Y2709D01*
X2130Y2096D02*
X2158D01*
X2144Y2082D02*
Y2110D01*
X1503Y2095D02*
X1531D01*
X1517Y2081D02*
Y2109D01*
X6924Y3680D02*
X6952D01*
X6938Y3666D02*
Y3694D01*
X6222Y3593D02*
X6250D01*
X6236Y3579D02*
Y3607D01*
X5217Y3239D02*
X5245D01*
X5231Y3225D02*
Y3253D01*
X5273Y2893D02*
X5301D01*
X5287Y2879D02*
Y2907D01*
X3875Y2458D02*
X3903D01*
X3889Y2444D02*
Y2472D01*
X4094Y2239D02*
X4122D01*
X4108Y2225D02*
Y2253D01*
X1984Y2242D02*
X2012D01*
X1998Y2228D02*
Y2256D01*
X2664Y2350D02*
X2692D01*
X2678Y2336D02*
Y2364D01*
X3646Y2835D02*
X3674D01*
X3660Y2821D02*
Y2849D01*
X3663Y2835D02*
X3691D01*
X3677Y2821D02*
Y2849D01*
X3456Y3758D02*
X3484D01*
X3470Y3744D02*
Y3772D01*
X3469Y1964D02*
X3497D01*
X3483Y1950D02*
Y1978D01*
X2575Y2527D02*
X2603D01*
X2589Y2513D02*
Y2541D01*
X5838Y2631D02*
X5866D01*
X5852Y2617D02*
Y2645D01*
X1291Y3567D02*
X1319D01*
X1305Y3553D02*
Y3581D01*
X4457Y3353D02*
X4485D01*
X4471Y3339D02*
Y3367D01*
X4762Y3196D02*
X4790D01*
X4776Y3182D02*
Y3210D01*
X5630Y3206D02*
X5658D01*
X5644Y3192D02*
Y3220D01*
X3325Y3429D02*
X3353D01*
X3339Y3415D02*
Y3443D01*
X3947Y3562D02*
X3975D01*
X3961Y3548D02*
Y3576D01*
X3704Y3272D02*
X3732D01*
X3718Y3258D02*
Y3286D01*
X4424Y3540D02*
X4452D01*
X4438Y3526D02*
Y3554D01*
X5931Y3360D02*
X5959D01*
X5945Y3346D02*
Y3374D01*
X5160Y3304D02*
X5188D01*
X5174Y3290D02*
Y3318D01*
X5586Y3417D02*
X5614D01*
X5600Y3403D02*
Y3431D01*
X6279Y3413D02*
X6307D01*
X6293Y3399D02*
Y3427D01*
X6073Y3438D02*
X6101D01*
X6087Y3424D02*
Y3452D01*
X6496Y3413D02*
X6524D01*
X6510Y3399D02*
Y3427D01*
X1754Y2442D02*
X1782D01*
X1768Y2428D02*
Y2456D01*
X2464Y2442D02*
X2492D01*
X2478Y2428D02*
Y2456D01*
X6344Y2241D02*
X6372D01*
X6358Y2227D02*
Y2255D01*
X6050Y2642D02*
X6078D01*
X6064Y2628D02*
Y2656D01*
X3821Y3454D02*
X3849D01*
X3835Y3440D02*
Y3468D01*
X2674Y3614D02*
X2702D01*
X2688Y3600D02*
Y3628D01*
X5551Y3239D02*
X5579D01*
X5565Y3225D02*
Y3253D01*
X6416Y3433D02*
X6444D01*
X6430Y3419D02*
Y3447D01*
X5614Y2794D02*
X5642D01*
X5628Y2780D02*
Y2808D01*
X3075Y2607D02*
X3103D01*
X3089Y2593D02*
Y2621D01*
X5108Y2801D02*
X5136D01*
X5122Y2787D02*
Y2815D01*
X3171Y3877D02*
X3199D01*
X3185Y3863D02*
Y3891D01*
X4444Y2742D02*
X4472D01*
X4458Y2728D02*
Y2756D01*
X3008Y2743D02*
X3036D01*
X3022Y2729D02*
Y2757D01*
X3379Y2836D02*
X3407D01*
X3393Y2822D02*
Y2850D01*
X6755Y3414D02*
X6783D01*
X6769Y3400D02*
Y3428D01*
X7559Y2848D02*
X7587D01*
X7573Y2834D02*
Y2862D01*
X5934Y2824D02*
X5962D01*
X5948Y2810D02*
Y2838D01*
X4527Y2678D02*
X4555D01*
X4541Y2664D02*
Y2692D01*
X3044Y2894D02*
X3072D01*
X3058Y2880D02*
Y2908D01*
X2574Y2821D02*
X2602D01*
X2588Y2807D02*
Y2835D01*
X4119Y1527D02*
X4147D01*
X4133Y1513D02*
Y1541D01*
X7606Y1848D02*
X7634D01*
X7620Y1834D02*
Y1862D01*
X3271Y2002D02*
X3299D01*
X3285Y1988D02*
Y2016D01*
X3283Y1428D02*
X3311D01*
X3297Y1414D02*
Y1442D01*
X5510Y1628D02*
X5538D01*
X5524Y1614D02*
Y1642D01*
X5031Y1915D02*
X5059D01*
X5045Y1901D02*
Y1929D01*
X3979Y1915D02*
X4007D01*
X3993Y1901D02*
Y1929D01*
X5919Y1868D02*
X5947D01*
X5933Y1854D02*
Y1882D01*
X6435Y1867D02*
X6463D01*
X6449Y1853D02*
Y1881D01*
X4308Y1628D02*
X4336D01*
X4322Y1614D02*
Y1642D01*
X3364Y1507D02*
X3392D01*
X3378Y1493D02*
Y1521D01*
X3315Y1506D02*
X3343D01*
X3329Y1492D02*
Y1520D01*
X2913Y1592D02*
X2941D01*
X2927Y1578D02*
Y1606D01*
X7633Y1592D02*
X7661D01*
X7647Y1578D02*
Y1606D01*
X5187Y1532D02*
X5215D01*
X5201Y1518D02*
Y1546D01*
X3648Y3547D02*
X3676D01*
X3662Y3533D02*
Y3561D01*
X3426Y3876D02*
X3454D01*
X3440Y3862D02*
Y3890D01*
X3353Y3551D02*
X3381D01*
X3367Y3537D02*
Y3565D01*
X3655Y3353D02*
X3683D01*
X3669Y3339D02*
Y3367D01*
X6271Y2290D02*
X6299D01*
X6285Y2276D02*
Y2304D01*
X2819Y2828D02*
X2847D01*
X2833Y2814D02*
Y2842D01*
X2786Y2710D02*
X2814D01*
X2800Y2696D02*
Y2724D01*
X4766Y1545D02*
X4794D01*
X4780Y1531D02*
Y1559D01*
X7421Y2585D02*
X7449D01*
X7435Y2571D02*
Y2599D01*
X7166Y2750D02*
X7194D01*
X7180Y2736D02*
Y2764D01*
X3561Y3725D02*
X3589D01*
X3575Y3711D02*
Y3739D01*
X4998Y3967D02*
X5026D01*
X5012Y3953D02*
Y3981D01*
M02*
