M48
;Layer_Color=9474304
;FILE_FORMAT=2:3
INCH,LZ
;TYPE=PLATED
T1F00S00C0.020
T2F00S00C0.028
T3F00S00C0.030
T4F00S00C0.035
%
T01
X01681Y03375
X01679Y03575
T02
X03297Y01428
X03329Y01506
X03378Y01507
X04133Y01527
X0478Y01545
X05201Y01532
X06021Y01474
X06449Y01867
X06358Y02241
X06285Y0229
X06477Y02695
X0718Y0275
X0723Y03105
X07573Y02848
X07435Y02585
X0762Y01848
X07647Y01592
X07013Y0171
X05933Y01868
X05524Y01628
X05045Y01915
X05122Y02801
X05287Y02893
X05628Y02794
X05948Y02824
X05852Y02631
X06064Y02642
X04693Y03048
X04541Y02678
X04458Y02742
X03969Y02863
X03677Y02835
X0366
X03393Y02836
X03889Y02458
X04108Y02239
X03993Y01915
X03827Y01888
X03742Y01873
X03483Y01964
X03285Y02002
X03965Y01579
X04322Y01628
X04619Y01991
X02927Y01592
X02361Y01815
X02144Y02096
X01998Y02242
X01768Y02442
X02478
X02589Y02527
X02678Y0235
X028Y0271
X02833Y02828
X02588Y02821
X03022Y02743
X03058Y02894
X03089Y02607
X01517Y02095
X01305Y03567
X02688Y03614
X03367Y03551
X03339Y03429
X03462Y03196
X03718Y03272
X03669Y03353
X03662Y03547
X03575Y03725
X0347Y03758
X0344Y03876
X03185Y03877
X03835Y03454
X03961Y03562
X04438Y0354
X04471Y03353
X04637Y03428
X04776Y03196
X05231Y03239
X05174Y03304
X05565Y03239
X05644Y03206
X056Y03417
X05945Y0336
X06087Y03438
X06236Y03593
X05012Y03967
X06293Y03413
X0643Y03433
X0651Y03413
X06769Y03414
Y03326
X06938Y0368
T03
X07905Y0175
X08005
X08105
Y0298
X08005
X07905
X07805
X07705
X07605
X07505
X07405
X07305
X07205
X06925
X06825
X06725
X06625
X06525
X06425
X06325
Y0175
X06425
X06525
X06625
X06725
X06825
X06925
X07205
X07305
X07405
X07505
X07605
X07705
X07805
X06225
X06125
X06025
X05745
X05645
X05545
X05445
X05345
X05245
X05145
X05045
X04945
X04845
Y0298
X04945
X05045
X05145
X05245
X05345
X05445
X05545
X05645
X05745
X06025
X06125
X06225
X04565
X04465
X04365
X04265
X04165
X04065
X03965
X03865
X03765
X03665
X03385
X03285
X03185
Y0175
X03285
X03385
X03665
X03765
X03865
X03965
X04065
X04165
X04265
X04365
X04465
X04565
X03085
X02985
X02885
X02785
X02685
X02585
X02485
X02205
X02105
X02005
X01905
X01805
X01705
X01605
Y0298
X01705
X01805
X01905
X02005
X02105
X02205
X02485
X02585
X02685
X02785
X02885
X02985
X03085
X01505
X01405
X01305
Y0175
X01405
X01505
T04
X04705Y02165
Y02265
Y02365
Y02465
Y02565
X0463Y038
X0453
X0473
X0483
X0493
X0503
M30
