%FSLAX23Y23*%
%MOIN*%
G70*
G01*
G75*
G04 Layer_Color=2752767*
%ADD10C,0.010*%
%ADD11C,0.024*%
%ADD12C,0.006*%
%ADD13C,0.079*%
%ADD14C,0.085*%
%ADD15C,0.071*%
%ADD16O,0.067X0.024*%
%ADD17O,0.079X0.024*%
%ADD18R,0.075X0.157*%
%ADD19R,0.059X0.110*%
%ADD20R,0.240X0.248*%
%ADD21R,0.063X0.071*%
%ADD22R,0.051X0.039*%
%ADD23R,0.102X0.043*%
%ADD24R,0.043X0.102*%
%ADD25R,0.024X0.033*%
%ADD26R,0.033X0.024*%
G04:AMPARAMS|DCode=27|XSize=71mil|YSize=118mil|CornerRadius=0mil|HoleSize=0mil|Usage=FLASHONLY|Rotation=0.000|XOffset=0mil|YOffset=0mil|HoleType=Round|Shape=Octagon|*
%AMOCTAGOND27*
4,1,8,-0.018,0.059,0.018,0.059,0.035,0.041,0.035,-0.041,0.018,-0.059,-0.018,-0.059,-0.035,-0.041,-0.035,0.041,-0.018,0.059,0.0*
%
%ADD27OCTAGOND27*%

%ADD28R,0.020X0.047*%
%ADD29R,0.020X0.063*%
%ADD30R,2.050X0.035*%
%ADD31R,0.430X0.030*%
%ADD32R,0.025X0.070*%
%ADD33R,0.025X0.060*%
%ADD34R,0.430X0.160*%
%ADD35R,0.335X0.160*%
%ADD36R,0.170X0.110*%
%ADD37R,0.040X0.150*%
%ADD38R,0.045X0.120*%
%ADD39R,1.490X0.055*%
%ADD40R,0.055X0.160*%
%ADD41R,0.060X0.410*%
%ADD42R,5.035X0.055*%
%ADD43R,0.050X0.485*%
%ADD44R,0.025X0.245*%
%ADD45R,0.025X0.285*%
%ADD46R,0.035X0.170*%
%ADD47R,0.035X0.185*%
%ADD48R,0.325X0.025*%
%ADD49R,0.085X1.180*%
%ADD50R,1.300X0.040*%
%ADD51R,0.045X0.150*%
%ADD52C,0.087*%
%ADD53C,0.093*%
%ADD54C,0.079*%
%ADD55O,0.075X0.032*%
%ADD56O,0.087X0.032*%
%ADD57R,0.083X0.165*%
%ADD58R,0.067X0.118*%
%ADD59R,0.248X0.256*%
%ADD60R,0.071X0.079*%
%ADD61R,0.059X0.047*%
%ADD62R,0.110X0.051*%
%ADD63R,0.051X0.110*%
%ADD64R,0.032X0.041*%
%ADD65R,0.041X0.032*%
G04:AMPARAMS|DCode=66|XSize=79mil|YSize=126mil|CornerRadius=0mil|HoleSize=0mil|Usage=FLASHONLY|Rotation=0.000|XOffset=0mil|YOffset=0mil|HoleType=Round|Shape=Octagon|*
%AMOCTAGOND66*
4,1,8,-0.020,0.063,0.020,0.063,0.039,0.043,0.039,-0.043,0.020,-0.063,-0.020,-0.063,-0.039,-0.043,-0.039,0.043,-0.020,0.063,0.0*
%
%ADD66OCTAGOND66*%

%ADD67R,0.028X0.055*%
%ADD68R,0.028X0.071*%
%ADD69C,0.005*%
%ADD70C,0.007*%
D69*
X4685Y2145D02*
Y2185D01*
X4725D01*
Y2145D01*
X4685D01*
Y2245D02*
Y2285D01*
X4725D01*
Y2245D01*
X4685D01*
Y2345D02*
Y2385D01*
X4725D01*
Y2345D01*
X4685D01*
Y2445D02*
Y2485D01*
X4725D01*
Y2445D01*
X4685D01*
Y2545D02*
Y2585D01*
X4725D01*
Y2545D01*
X4685D01*
X5010Y3780D02*
Y3820D01*
X5050D01*
Y3780D01*
X5010D01*
X4910D02*
Y3820D01*
X4950D01*
Y3780D01*
X4910D01*
X4810D02*
Y3820D01*
X4850D01*
Y3780D01*
X4810D01*
X4710D02*
Y3820D01*
X4750D01*
Y3780D01*
X4710D01*
X4610D02*
Y3820D01*
X4650D01*
Y3780D01*
X4610D01*
X4510D02*
Y3820D01*
X4550D01*
Y3780D01*
X4510D01*
X8105Y1730D02*
X8085Y1770D01*
X8125D01*
X8105Y1730D01*
X8005D02*
X7985Y1770D01*
X8025D01*
X8005Y1730D01*
X7905D02*
X7885Y1770D01*
X7925D01*
X7905Y1730D01*
X7805D02*
X7785Y1770D01*
X7825D01*
X7805Y1730D01*
X7705D02*
X7685Y1770D01*
X7725D01*
X7705Y1730D01*
X7605D02*
X7585Y1770D01*
X7625D01*
X7605Y1730D01*
X7505D02*
X7485Y1770D01*
X7525D01*
X7505Y1730D01*
X7405D02*
X7385Y1770D01*
X7425D01*
X7405Y1730D01*
X7305D02*
X7285Y1770D01*
X7325D01*
X7305Y1730D01*
X7205D02*
X7185Y1770D01*
X7225D01*
X7205Y1730D01*
X8105Y2960D02*
X8085Y3000D01*
X8125D01*
X8105Y2960D01*
X8005D02*
X7985Y3000D01*
X8025D01*
X8005Y2960D01*
X7905D02*
X7885Y3000D01*
X7925D01*
X7905Y2960D01*
X7805D02*
X7785Y3000D01*
X7825D01*
X7805Y2960D01*
X7705D02*
X7685Y3000D01*
X7725D01*
X7705Y2960D01*
X7605D02*
X7585Y3000D01*
X7625D01*
X7605Y2960D01*
X7505D02*
X7485Y3000D01*
X7525D01*
X7505Y2960D01*
X7405D02*
X7385Y3000D01*
X7425D01*
X7405Y2960D01*
X7305D02*
X7285Y3000D01*
X7325D01*
X7305Y2960D01*
X7205D02*
X7185Y3000D01*
X7225D01*
X7205Y2960D01*
X6925Y1730D02*
X6905Y1770D01*
X6945D01*
X6925Y1730D01*
X6825D02*
X6805Y1770D01*
X6845D01*
X6825Y1730D01*
X6725D02*
X6705Y1770D01*
X6745D01*
X6725Y1730D01*
X6625D02*
X6605Y1770D01*
X6645D01*
X6625Y1730D01*
X6525D02*
X6505Y1770D01*
X6545D01*
X6525Y1730D01*
X6425D02*
X6405Y1770D01*
X6445D01*
X6425Y1730D01*
X6325D02*
X6305Y1770D01*
X6345D01*
X6325Y1730D01*
X6225D02*
X6205Y1770D01*
X6245D01*
X6225Y1730D01*
X6125D02*
X6105Y1770D01*
X6145D01*
X6125Y1730D01*
X6025D02*
X6005Y1770D01*
X6045D01*
X6025Y1730D01*
X6925Y2960D02*
X6905Y3000D01*
X6945D01*
X6925Y2960D01*
X6825D02*
X6805Y3000D01*
X6845D01*
X6825Y2960D01*
X6725D02*
X6705Y3000D01*
X6745D01*
X6725Y2960D01*
X6625D02*
X6605Y3000D01*
X6645D01*
X6625Y2960D01*
X6525D02*
X6505Y3000D01*
X6545D01*
X6525Y2960D01*
X6425D02*
X6405Y3000D01*
X6445D01*
X6425Y2960D01*
X6325D02*
X6305Y3000D01*
X6345D01*
X6325Y2960D01*
X6225D02*
X6205Y3000D01*
X6245D01*
X6225Y2960D01*
X6125D02*
X6105Y3000D01*
X6145D01*
X6125Y2960D01*
X6025D02*
X6005Y3000D01*
X6045D01*
X6025Y2960D01*
X5745Y1730D02*
X5725Y1770D01*
X5765D01*
X5745Y1730D01*
X5645D02*
X5625Y1770D01*
X5665D01*
X5645Y1730D01*
X5545D02*
X5525Y1770D01*
X5565D01*
X5545Y1730D01*
X5445D02*
X5425Y1770D01*
X5465D01*
X5445Y1730D01*
X5345D02*
X5325Y1770D01*
X5365D01*
X5345Y1730D01*
X5245D02*
X5225Y1770D01*
X5265D01*
X5245Y1730D01*
X5145D02*
X5125Y1770D01*
X5165D01*
X5145Y1730D01*
X5045D02*
X5025Y1770D01*
X5065D01*
X5045Y1730D01*
X4945D02*
X4925Y1770D01*
X4965D01*
X4945Y1730D01*
X4845D02*
X4825Y1770D01*
X4865D01*
X4845Y1730D01*
X5745Y2960D02*
X5725Y3000D01*
X5765D01*
X5745Y2960D01*
X5645D02*
X5625Y3000D01*
X5665D01*
X5645Y2960D01*
X5545D02*
X5525Y3000D01*
X5565D01*
X5545Y2960D01*
X5445D02*
X5425Y3000D01*
X5465D01*
X5445Y2960D01*
X5345D02*
X5325Y3000D01*
X5365D01*
X5345Y2960D01*
X5245D02*
X5225Y3000D01*
X5265D01*
X5245Y2960D01*
X5145D02*
X5125Y3000D01*
X5165D01*
X5145Y2960D01*
X5045D02*
X5025Y3000D01*
X5065D01*
X5045Y2960D01*
X4945D02*
X4925Y3000D01*
X4965D01*
X4945Y2960D01*
X4845D02*
X4825Y3000D01*
X4865D01*
X4845Y2960D01*
X4565Y1730D02*
X4545Y1770D01*
X4585D01*
X4565Y1730D01*
X4465D02*
X4445Y1770D01*
X4485D01*
X4465Y1730D01*
X4365D02*
X4345Y1770D01*
X4385D01*
X4365Y1730D01*
X4265D02*
X4245Y1770D01*
X4285D01*
X4265Y1730D01*
X4165D02*
X4145Y1770D01*
X4185D01*
X4165Y1730D01*
X4065D02*
X4045Y1770D01*
X4085D01*
X4065Y1730D01*
X3965D02*
X3945Y1770D01*
X3985D01*
X3965Y1730D01*
X3865D02*
X3845Y1770D01*
X3885D01*
X3865Y1730D01*
X3765D02*
X3745Y1770D01*
X3785D01*
X3765Y1730D01*
X3665D02*
X3645Y1770D01*
X3685D01*
X3665Y1730D01*
X4565Y2960D02*
X4545Y3000D01*
X4585D01*
X4565Y2960D01*
X4465D02*
X4445Y3000D01*
X4485D01*
X4465Y2960D01*
X4365D02*
X4345Y3000D01*
X4385D01*
X4365Y2960D01*
X4265D02*
X4245Y3000D01*
X4285D01*
X4265Y2960D01*
X4165D02*
X4145Y3000D01*
X4185D01*
X4165Y2960D01*
X4065D02*
X4045Y3000D01*
X4085D01*
X4065Y2960D01*
X3965D02*
X3945Y3000D01*
X3985D01*
X3965Y2960D01*
X3865D02*
X3845Y3000D01*
X3885D01*
X3865Y2960D01*
X3765D02*
X3745Y3000D01*
X3785D01*
X3765Y2960D01*
X3665D02*
X3645Y3000D01*
X3685D01*
X3665Y2960D01*
X3385Y1730D02*
X3365Y1770D01*
X3405D01*
X3385Y1730D01*
X3285D02*
X3265Y1770D01*
X3305D01*
X3285Y1730D01*
X3185D02*
X3165Y1770D01*
X3205D01*
X3185Y1730D01*
X3085D02*
X3065Y1770D01*
X3105D01*
X3085Y1730D01*
X2985D02*
X2965Y1770D01*
X3005D01*
X2985Y1730D01*
X2885D02*
X2865Y1770D01*
X2905D01*
X2885Y1730D01*
X2785D02*
X2765Y1770D01*
X2805D01*
X2785Y1730D01*
X2685D02*
X2665Y1770D01*
X2705D01*
X2685Y1730D01*
X2585D02*
X2565Y1770D01*
X2605D01*
X2585Y1730D01*
X2485D02*
X2465Y1770D01*
X2505D01*
X2485Y1730D01*
X3385Y2960D02*
X3365Y3000D01*
X3405D01*
X3385Y2960D01*
X3285D02*
X3265Y3000D01*
X3305D01*
X3285Y2960D01*
X3185D02*
X3165Y3000D01*
X3205D01*
X3185Y2960D01*
X3085D02*
X3065Y3000D01*
X3105D01*
X3085Y2960D01*
X2985D02*
X2965Y3000D01*
X3005D01*
X2985Y2960D01*
X2885D02*
X2865Y3000D01*
X2905D01*
X2885Y2960D01*
X2785D02*
X2765Y3000D01*
X2805D01*
X2785Y2960D01*
X2685D02*
X2665Y3000D01*
X2705D01*
X2685Y2960D01*
X2585D02*
X2565Y3000D01*
X2605D01*
X2585Y2960D01*
X2485D02*
X2465Y3000D01*
X2505D01*
X2485Y2960D01*
X2205Y1730D02*
X2185Y1770D01*
X2225D01*
X2205Y1730D01*
X2105D02*
X2085Y1770D01*
X2125D01*
X2105Y1730D01*
X2005D02*
X1985Y1770D01*
X2025D01*
X2005Y1730D01*
X1905D02*
X1885Y1770D01*
X1925D01*
X1905Y1730D01*
X1805D02*
X1785Y1770D01*
X1825D01*
X1805Y1730D01*
X1705D02*
X1685Y1770D01*
X1725D01*
X1705Y1730D01*
X1605D02*
X1585Y1770D01*
X1625D01*
X1605Y1730D01*
X1505D02*
X1485Y1770D01*
X1525D01*
X1505Y1730D01*
X1405D02*
X1385Y1770D01*
X1425D01*
X1405Y1730D01*
X1305D02*
X1285Y1770D01*
X1325D01*
X1305Y1730D01*
X2205Y2960D02*
X2185Y3000D01*
X2225D01*
X2205Y2960D01*
X2105D02*
X2085Y3000D01*
X2125D01*
X2105Y2960D01*
X2005D02*
X1985Y3000D01*
X2025D01*
X2005Y2960D01*
X1905D02*
X1885Y3000D01*
X1925D01*
X1905Y2960D01*
X1805D02*
X1785Y3000D01*
X1825D01*
X1805Y2960D01*
X1705D02*
X1685Y3000D01*
X1725D01*
X1705Y2960D01*
X1605D02*
X1585Y3000D01*
X1625D01*
X1605Y2960D01*
X1505D02*
X1485Y3000D01*
X1525D01*
X1505Y2960D01*
X1405D02*
X1385Y3000D01*
X1425D01*
X1405Y2960D01*
X1305D02*
X1285Y3000D01*
X1325D01*
X1305Y2960D01*
X2361Y1795D02*
X2371Y1805D01*
X2381D01*
X2371Y1815D01*
X2381Y1825D01*
X2371D01*
X2361Y1835D01*
X2351Y1825D01*
X2341D01*
X2351Y1815D01*
X2341Y1805D01*
X2351D01*
X2361Y1795D01*
X7013Y1690D02*
X7023Y1700D01*
X7033D01*
X7023Y1710D01*
X7033Y1720D01*
X7023D01*
X7013Y1730D01*
X7003Y1720D01*
X6993D01*
X7003Y1710D01*
X6993Y1700D01*
X7003D01*
X7013Y1690D01*
X3827Y1868D02*
X3837Y1878D01*
X3847D01*
X3837Y1888D01*
X3847Y1898D01*
X3837D01*
X3827Y1908D01*
X3817Y1898D01*
X3807D01*
X3817Y1888D01*
X3807Y1878D01*
X3817D01*
X3827Y1868D01*
X3742Y1853D02*
X3752Y1863D01*
X3762D01*
X3752Y1873D01*
X3762Y1883D01*
X3752D01*
X3742Y1893D01*
X3732Y1883D01*
X3722D01*
X3732Y1873D01*
X3722Y1863D01*
X3732D01*
X3742Y1853D01*
X3965Y1559D02*
X3975Y1569D01*
X3985D01*
X3975Y1579D01*
X3985Y1589D01*
X3975D01*
X3965Y1599D01*
X3955Y1589D01*
X3945D01*
X3955Y1579D01*
X3945Y1569D01*
X3955D01*
X3965Y1559D01*
X6021Y1454D02*
X6031Y1464D01*
X6041D01*
X6031Y1474D01*
X6041Y1484D01*
X6031D01*
X6021Y1494D01*
X6011Y1484D01*
X6001D01*
X6011Y1474D01*
X6001Y1464D01*
X6011D01*
X6021Y1454D01*
X4619Y1971D02*
X4629Y1981D01*
X4639D01*
X4629Y1991D01*
X4639Y2001D01*
X4629D01*
X4619Y2011D01*
X4609Y2001D01*
X4599D01*
X4609Y1991D01*
X4599Y1981D01*
X4609D01*
X4619Y1971D01*
X7230Y3085D02*
X7240Y3095D01*
X7250D01*
X7240Y3105D01*
X7250Y3115D01*
X7240D01*
X7230Y3125D01*
X7220Y3115D01*
X7210D01*
X7220Y3105D01*
X7210Y3095D01*
X7220D01*
X7230Y3085D01*
X3969Y2843D02*
X3979Y2853D01*
X3989D01*
X3979Y2863D01*
X3989Y2873D01*
X3979D01*
X3969Y2883D01*
X3959Y2873D01*
X3949D01*
X3959Y2863D01*
X3949Y2853D01*
X3959D01*
X3969Y2843D01*
X6769Y3306D02*
X6779Y3316D01*
X6789D01*
X6779Y3326D01*
X6789Y3336D01*
X6779D01*
X6769Y3346D01*
X6759Y3336D01*
X6749D01*
X6759Y3326D01*
X6749Y3316D01*
X6759D01*
X6769Y3306D01*
X4693Y3028D02*
X4703Y3038D01*
X4713D01*
X4703Y3048D01*
X4713Y3058D01*
X4703D01*
X4693Y3068D01*
X4683Y3058D01*
X4673D01*
X4683Y3048D01*
X4673Y3038D01*
X4683D01*
X4693Y3028D01*
X4637Y3408D02*
X4647Y3418D01*
X4657D01*
X4647Y3428D01*
X4657Y3438D01*
X4647D01*
X4637Y3448D01*
X4627Y3438D01*
X4617D01*
X4627Y3428D01*
X4617Y3418D01*
X4627D01*
X4637Y3408D01*
X3462Y3176D02*
X3472Y3186D01*
X3482D01*
X3472Y3196D01*
X3482Y3206D01*
X3472D01*
X3462Y3216D01*
X3452Y3206D01*
X3442D01*
X3452Y3196D01*
X3442Y3186D01*
X3452D01*
X3462Y3176D01*
X6477Y2675D02*
X6487Y2685D01*
X6497D01*
X6487Y2695D01*
X6497Y2705D01*
X6487D01*
X6477Y2715D01*
X6467Y2705D01*
X6457D01*
X6467Y2695D01*
X6457Y2685D01*
X6467D01*
X6477Y2675D01*
X2144Y2076D02*
X2154Y2086D01*
X2164D01*
X2154Y2096D01*
X2164Y2106D01*
X2154D01*
X2144Y2116D01*
X2134Y2106D01*
X2124D01*
X2134Y2096D01*
X2124Y2086D01*
X2134D01*
X2144Y2076D01*
X1517Y2075D02*
X1527Y2085D01*
X1537D01*
X1527Y2095D01*
X1537Y2105D01*
X1527D01*
X1517Y2115D01*
X1507Y2105D01*
X1497D01*
X1507Y2095D01*
X1497Y2085D01*
X1507D01*
X1517Y2075D01*
X6938Y3660D02*
X6948Y3670D01*
X6958D01*
X6948Y3680D01*
X6958Y3690D01*
X6948D01*
X6938Y3700D01*
X6928Y3690D01*
X6918D01*
X6928Y3680D01*
X6918Y3670D01*
X6928D01*
X6938Y3660D01*
X6236Y3573D02*
X6246Y3583D01*
X6256D01*
X6246Y3593D01*
X6256Y3603D01*
X6246D01*
X6236Y3613D01*
X6226Y3603D01*
X6216D01*
X6226Y3593D01*
X6216Y3583D01*
X6226D01*
X6236Y3573D01*
X5231Y3219D02*
X5241Y3229D01*
X5251D01*
X5241Y3239D01*
X5251Y3249D01*
X5241D01*
X5231Y3259D01*
X5221Y3249D01*
X5211D01*
X5221Y3239D01*
X5211Y3229D01*
X5221D01*
X5231Y3219D01*
X5287Y2873D02*
X5297Y2883D01*
X5307D01*
X5297Y2893D01*
X5307Y2903D01*
X5297D01*
X5287Y2913D01*
X5277Y2903D01*
X5267D01*
X5277Y2893D01*
X5267Y2883D01*
X5277D01*
X5287Y2873D01*
X3889Y2438D02*
X3899Y2448D01*
X3909D01*
X3899Y2458D01*
X3909Y2468D01*
X3899D01*
X3889Y2478D01*
X3879Y2468D01*
X3869D01*
X3879Y2458D01*
X3869Y2448D01*
X3879D01*
X3889Y2438D01*
X4108Y2219D02*
X4118Y2229D01*
X4128D01*
X4118Y2239D01*
X4128Y2249D01*
X4118D01*
X4108Y2259D01*
X4098Y2249D01*
X4088D01*
X4098Y2239D01*
X4088Y2229D01*
X4098D01*
X4108Y2219D01*
X1998Y2222D02*
X2008Y2232D01*
X2018D01*
X2008Y2242D01*
X2018Y2252D01*
X2008D01*
X1998Y2262D01*
X1988Y2252D01*
X1978D01*
X1988Y2242D01*
X1978Y2232D01*
X1988D01*
X1998Y2222D01*
X2678Y2330D02*
X2688Y2340D01*
X2698D01*
X2688Y2350D01*
X2698Y2360D01*
X2688D01*
X2678Y2370D01*
X2668Y2360D01*
X2658D01*
X2668Y2350D01*
X2658Y2340D01*
X2668D01*
X2678Y2330D01*
X3660Y2815D02*
X3670Y2825D01*
X3680D01*
X3670Y2835D01*
X3680Y2845D01*
X3670D01*
X3660Y2855D01*
X3650Y2845D01*
X3640D01*
X3650Y2835D01*
X3640Y2825D01*
X3650D01*
X3660Y2815D01*
X3677D02*
X3687Y2825D01*
X3697D01*
X3687Y2835D01*
X3697Y2845D01*
X3687D01*
X3677Y2855D01*
X3667Y2845D01*
X3657D01*
X3667Y2835D01*
X3657Y2825D01*
X3667D01*
X3677Y2815D01*
X3470Y3738D02*
X3480Y3748D01*
X3490D01*
X3480Y3758D01*
X3490Y3768D01*
X3480D01*
X3470Y3778D01*
X3460Y3768D01*
X3450D01*
X3460Y3758D01*
X3450Y3748D01*
X3460D01*
X3470Y3738D01*
X3483Y1944D02*
X3493Y1954D01*
X3503D01*
X3493Y1964D01*
X3503Y1974D01*
X3493D01*
X3483Y1984D01*
X3473Y1974D01*
X3463D01*
X3473Y1964D01*
X3463Y1954D01*
X3473D01*
X3483Y1944D01*
X2589Y2507D02*
X2599Y2517D01*
X2609D01*
X2599Y2527D01*
X2609Y2537D01*
X2599D01*
X2589Y2547D01*
X2579Y2537D01*
X2569D01*
X2579Y2527D01*
X2569Y2517D01*
X2579D01*
X2589Y2507D01*
X5852Y2611D02*
X5862Y2621D01*
X5872D01*
X5862Y2631D01*
X5872Y2641D01*
X5862D01*
X5852Y2651D01*
X5842Y2641D01*
X5832D01*
X5842Y2631D01*
X5832Y2621D01*
X5842D01*
X5852Y2611D01*
X1305Y3547D02*
X1315Y3557D01*
X1325D01*
X1315Y3567D01*
X1325Y3577D01*
X1315D01*
X1305Y3587D01*
X1295Y3577D01*
X1285D01*
X1295Y3567D01*
X1285Y3557D01*
X1295D01*
X1305Y3547D01*
X4471Y3333D02*
X4481Y3343D01*
X4491D01*
X4481Y3353D01*
X4491Y3363D01*
X4481D01*
X4471Y3373D01*
X4461Y3363D01*
X4451D01*
X4461Y3353D01*
X4451Y3343D01*
X4461D01*
X4471Y3333D01*
X4776Y3176D02*
X4786Y3186D01*
X4796D01*
X4786Y3196D01*
X4796Y3206D01*
X4786D01*
X4776Y3216D01*
X4766Y3206D01*
X4756D01*
X4766Y3196D01*
X4756Y3186D01*
X4766D01*
X4776Y3176D01*
X5644Y3186D02*
X5654Y3196D01*
X5664D01*
X5654Y3206D01*
X5664Y3216D01*
X5654D01*
X5644Y3226D01*
X5634Y3216D01*
X5624D01*
X5634Y3206D01*
X5624Y3196D01*
X5634D01*
X5644Y3186D01*
X3339Y3409D02*
X3349Y3419D01*
X3359D01*
X3349Y3429D01*
X3359Y3439D01*
X3349D01*
X3339Y3449D01*
X3329Y3439D01*
X3319D01*
X3329Y3429D01*
X3319Y3419D01*
X3329D01*
X3339Y3409D01*
X3961Y3542D02*
X3971Y3552D01*
X3981D01*
X3971Y3562D01*
X3981Y3572D01*
X3971D01*
X3961Y3582D01*
X3951Y3572D01*
X3941D01*
X3951Y3562D01*
X3941Y3552D01*
X3951D01*
X3961Y3542D01*
X3718Y3252D02*
X3728Y3262D01*
X3738D01*
X3728Y3272D01*
X3738Y3282D01*
X3728D01*
X3718Y3292D01*
X3708Y3282D01*
X3698D01*
X3708Y3272D01*
X3698Y3262D01*
X3708D01*
X3718Y3252D01*
X4438Y3520D02*
X4448Y3530D01*
X4458D01*
X4448Y3540D01*
X4458Y3550D01*
X4448D01*
X4438Y3560D01*
X4428Y3550D01*
X4418D01*
X4428Y3540D01*
X4418Y3530D01*
X4428D01*
X4438Y3520D01*
X5945Y3340D02*
X5955Y3350D01*
X5965D01*
X5955Y3360D01*
X5965Y3370D01*
X5955D01*
X5945Y3380D01*
X5935Y3370D01*
X5925D01*
X5935Y3360D01*
X5925Y3350D01*
X5935D01*
X5945Y3340D01*
X5174Y3284D02*
X5184Y3294D01*
X5194D01*
X5184Y3304D01*
X5194Y3314D01*
X5184D01*
X5174Y3324D01*
X5164Y3314D01*
X5154D01*
X5164Y3304D01*
X5154Y3294D01*
X5164D01*
X5174Y3284D01*
X5600Y3397D02*
X5610Y3407D01*
X5620D01*
X5610Y3417D01*
X5620Y3427D01*
X5610D01*
X5600Y3437D01*
X5590Y3427D01*
X5580D01*
X5590Y3417D01*
X5580Y3407D01*
X5590D01*
X5600Y3397D01*
X6293Y3393D02*
X6303Y3403D01*
X6313D01*
X6303Y3413D01*
X6313Y3423D01*
X6303D01*
X6293Y3433D01*
X6283Y3423D01*
X6273D01*
X6283Y3413D01*
X6273Y3403D01*
X6283D01*
X6293Y3393D01*
X6087Y3418D02*
X6097Y3428D01*
X6107D01*
X6097Y3438D01*
X6107Y3448D01*
X6097D01*
X6087Y3458D01*
X6077Y3448D01*
X6067D01*
X6077Y3438D01*
X6067Y3428D01*
X6077D01*
X6087Y3418D01*
X6510Y3393D02*
X6520Y3403D01*
X6530D01*
X6520Y3413D01*
X6530Y3423D01*
X6520D01*
X6510Y3433D01*
X6500Y3423D01*
X6490D01*
X6500Y3413D01*
X6490Y3403D01*
X6500D01*
X6510Y3393D01*
X1768Y2422D02*
X1778Y2432D01*
X1788D01*
X1778Y2442D01*
X1788Y2452D01*
X1778D01*
X1768Y2462D01*
X1758Y2452D01*
X1748D01*
X1758Y2442D01*
X1748Y2432D01*
X1758D01*
X1768Y2422D01*
X2478D02*
X2488Y2432D01*
X2498D01*
X2488Y2442D01*
X2498Y2452D01*
X2488D01*
X2478Y2462D01*
X2468Y2452D01*
X2458D01*
X2468Y2442D01*
X2458Y2432D01*
X2468D01*
X2478Y2422D01*
X6358Y2221D02*
X6368Y2231D01*
X6378D01*
X6368Y2241D01*
X6378Y2251D01*
X6368D01*
X6358Y2261D01*
X6348Y2251D01*
X6338D01*
X6348Y2241D01*
X6338Y2231D01*
X6348D01*
X6358Y2221D01*
X6064Y2622D02*
X6074Y2632D01*
X6084D01*
X6074Y2642D01*
X6084Y2652D01*
X6074D01*
X6064Y2662D01*
X6054Y2652D01*
X6044D01*
X6054Y2642D01*
X6044Y2632D01*
X6054D01*
X6064Y2622D01*
X3835Y3434D02*
X3845Y3444D01*
X3855D01*
X3845Y3454D01*
X3855Y3464D01*
X3845D01*
X3835Y3474D01*
X3825Y3464D01*
X3815D01*
X3825Y3454D01*
X3815Y3444D01*
X3825D01*
X3835Y3434D01*
X2688Y3594D02*
X2698Y3604D01*
X2708D01*
X2698Y3614D01*
X2708Y3624D01*
X2698D01*
X2688Y3634D01*
X2678Y3624D01*
X2668D01*
X2678Y3614D01*
X2668Y3604D01*
X2678D01*
X2688Y3594D01*
X5565Y3219D02*
X5575Y3229D01*
X5585D01*
X5575Y3239D01*
X5585Y3249D01*
X5575D01*
X5565Y3259D01*
X5555Y3249D01*
X5545D01*
X5555Y3239D01*
X5545Y3229D01*
X5555D01*
X5565Y3219D01*
X6430Y3413D02*
X6440Y3423D01*
X6450D01*
X6440Y3433D01*
X6450Y3443D01*
X6440D01*
X6430Y3453D01*
X6420Y3443D01*
X6410D01*
X6420Y3433D01*
X6410Y3423D01*
X6420D01*
X6430Y3413D01*
X5628Y2774D02*
X5638Y2784D01*
X5648D01*
X5638Y2794D01*
X5648Y2804D01*
X5638D01*
X5628Y2814D01*
X5618Y2804D01*
X5608D01*
X5618Y2794D01*
X5608Y2784D01*
X5618D01*
X5628Y2774D01*
X3089Y2587D02*
X3099Y2597D01*
X3109D01*
X3099Y2607D01*
X3109Y2617D01*
X3099D01*
X3089Y2627D01*
X3079Y2617D01*
X3069D01*
X3079Y2607D01*
X3069Y2597D01*
X3079D01*
X3089Y2587D01*
X5122Y2781D02*
X5132Y2791D01*
X5142D01*
X5132Y2801D01*
X5142Y2811D01*
X5132D01*
X5122Y2821D01*
X5112Y2811D01*
X5102D01*
X5112Y2801D01*
X5102Y2791D01*
X5112D01*
X5122Y2781D01*
X3185Y3857D02*
X3195Y3867D01*
X3205D01*
X3195Y3877D01*
X3205Y3887D01*
X3195D01*
X3185Y3897D01*
X3175Y3887D01*
X3165D01*
X3175Y3877D01*
X3165Y3867D01*
X3175D01*
X3185Y3857D01*
X4458Y2722D02*
X4468Y2732D01*
X4478D01*
X4468Y2742D01*
X4478Y2752D01*
X4468D01*
X4458Y2762D01*
X4448Y2752D01*
X4438D01*
X4448Y2742D01*
X4438Y2732D01*
X4448D01*
X4458Y2722D01*
X3022Y2723D02*
X3032Y2733D01*
X3042D01*
X3032Y2743D01*
X3042Y2753D01*
X3032D01*
X3022Y2763D01*
X3012Y2753D01*
X3002D01*
X3012Y2743D01*
X3002Y2733D01*
X3012D01*
X3022Y2723D01*
X3393Y2816D02*
X3403Y2826D01*
X3413D01*
X3403Y2836D01*
X3413Y2846D01*
X3403D01*
X3393Y2856D01*
X3383Y2846D01*
X3373D01*
X3383Y2836D01*
X3373Y2826D01*
X3383D01*
X3393Y2816D01*
X6769Y3394D02*
X6779Y3404D01*
X6789D01*
X6779Y3414D01*
X6789Y3424D01*
X6779D01*
X6769Y3434D01*
X6759Y3424D01*
X6749D01*
X6759Y3414D01*
X6749Y3404D01*
X6759D01*
X6769Y3394D01*
X7573Y2828D02*
X7583Y2838D01*
X7593D01*
X7583Y2848D01*
X7593Y2858D01*
X7583D01*
X7573Y2868D01*
X7563Y2858D01*
X7553D01*
X7563Y2848D01*
X7553Y2838D01*
X7563D01*
X7573Y2828D01*
X5948Y2804D02*
X5958Y2814D01*
X5968D01*
X5958Y2824D01*
X5968Y2834D01*
X5958D01*
X5948Y2844D01*
X5938Y2834D01*
X5928D01*
X5938Y2824D01*
X5928Y2814D01*
X5938D01*
X5948Y2804D01*
X4541Y2658D02*
X4551Y2668D01*
X4561D01*
X4551Y2678D01*
X4561Y2688D01*
X4551D01*
X4541Y2698D01*
X4531Y2688D01*
X4521D01*
X4531Y2678D01*
X4521Y2668D01*
X4531D01*
X4541Y2658D01*
X3058Y2874D02*
X3068Y2884D01*
X3078D01*
X3068Y2894D01*
X3078Y2904D01*
X3068D01*
X3058Y2914D01*
X3048Y2904D01*
X3038D01*
X3048Y2894D01*
X3038Y2884D01*
X3048D01*
X3058Y2874D01*
X2588Y2801D02*
X2598Y2811D01*
X2608D01*
X2598Y2821D01*
X2608Y2831D01*
X2598D01*
X2588Y2841D01*
X2578Y2831D01*
X2568D01*
X2578Y2821D01*
X2568Y2811D01*
X2578D01*
X2588Y2801D01*
X4133Y1507D02*
X4143Y1517D01*
X4153D01*
X4143Y1527D01*
X4153Y1537D01*
X4143D01*
X4133Y1547D01*
X4123Y1537D01*
X4113D01*
X4123Y1527D01*
X4113Y1517D01*
X4123D01*
X4133Y1507D01*
X7620Y1828D02*
X7630Y1838D01*
X7640D01*
X7630Y1848D01*
X7640Y1858D01*
X7630D01*
X7620Y1868D01*
X7610Y1858D01*
X7600D01*
X7610Y1848D01*
X7600Y1838D01*
X7610D01*
X7620Y1828D01*
X3285Y1982D02*
X3295Y1992D01*
X3305D01*
X3295Y2002D01*
X3305Y2012D01*
X3295D01*
X3285Y2022D01*
X3275Y2012D01*
X3265D01*
X3275Y2002D01*
X3265Y1992D01*
X3275D01*
X3285Y1982D01*
X3297Y1408D02*
X3307Y1418D01*
X3317D01*
X3307Y1428D01*
X3317Y1438D01*
X3307D01*
X3297Y1448D01*
X3287Y1438D01*
X3277D01*
X3287Y1428D01*
X3277Y1418D01*
X3287D01*
X3297Y1408D01*
X5524Y1608D02*
X5534Y1618D01*
X5544D01*
X5534Y1628D01*
X5544Y1638D01*
X5534D01*
X5524Y1648D01*
X5514Y1638D01*
X5504D01*
X5514Y1628D01*
X5504Y1618D01*
X5514D01*
X5524Y1608D01*
X5045Y1895D02*
X5055Y1905D01*
X5065D01*
X5055Y1915D01*
X5065Y1925D01*
X5055D01*
X5045Y1935D01*
X5035Y1925D01*
X5025D01*
X5035Y1915D01*
X5025Y1905D01*
X5035D01*
X5045Y1895D01*
X3993D02*
X4003Y1905D01*
X4013D01*
X4003Y1915D01*
X4013Y1925D01*
X4003D01*
X3993Y1935D01*
X3983Y1925D01*
X3973D01*
X3983Y1915D01*
X3973Y1905D01*
X3983D01*
X3993Y1895D01*
X5933Y1848D02*
X5943Y1858D01*
X5953D01*
X5943Y1868D01*
X5953Y1878D01*
X5943D01*
X5933Y1888D01*
X5923Y1878D01*
X5913D01*
X5923Y1868D01*
X5913Y1858D01*
X5923D01*
X5933Y1848D01*
X6449Y1847D02*
X6459Y1857D01*
X6469D01*
X6459Y1867D01*
X6469Y1877D01*
X6459D01*
X6449Y1887D01*
X6439Y1877D01*
X6429D01*
X6439Y1867D01*
X6429Y1857D01*
X6439D01*
X6449Y1847D01*
X4322Y1608D02*
X4332Y1618D01*
X4342D01*
X4332Y1628D01*
X4342Y1638D01*
X4332D01*
X4322Y1648D01*
X4312Y1638D01*
X4302D01*
X4312Y1628D01*
X4302Y1618D01*
X4312D01*
X4322Y1608D01*
X3378Y1487D02*
X3388Y1497D01*
X3398D01*
X3388Y1507D01*
X3398Y1517D01*
X3388D01*
X3378Y1527D01*
X3368Y1517D01*
X3358D01*
X3368Y1507D01*
X3358Y1497D01*
X3368D01*
X3378Y1487D01*
X3329Y1486D02*
X3339Y1496D01*
X3349D01*
X3339Y1506D01*
X3349Y1516D01*
X3339D01*
X3329Y1526D01*
X3319Y1516D01*
X3309D01*
X3319Y1506D01*
X3309Y1496D01*
X3319D01*
X3329Y1486D01*
X2927Y1572D02*
X2937Y1582D01*
X2947D01*
X2937Y1592D01*
X2947Y1602D01*
X2937D01*
X2927Y1612D01*
X2917Y1602D01*
X2907D01*
X2917Y1592D01*
X2907Y1582D01*
X2917D01*
X2927Y1572D01*
X7647D02*
X7657Y1582D01*
X7667D01*
X7657Y1592D01*
X7667Y1602D01*
X7657D01*
X7647Y1612D01*
X7637Y1602D01*
X7627D01*
X7637Y1592D01*
X7627Y1582D01*
X7637D01*
X7647Y1572D01*
X5201Y1512D02*
X5211Y1522D01*
X5221D01*
X5211Y1532D01*
X5221Y1542D01*
X5211D01*
X5201Y1552D01*
X5191Y1542D01*
X5181D01*
X5191Y1532D01*
X5181Y1522D01*
X5191D01*
X5201Y1512D01*
X3662Y3527D02*
X3672Y3537D01*
X3682D01*
X3672Y3547D01*
X3682Y3557D01*
X3672D01*
X3662Y3567D01*
X3652Y3557D01*
X3642D01*
X3652Y3547D01*
X3642Y3537D01*
X3652D01*
X3662Y3527D01*
X3440Y3856D02*
X3450Y3866D01*
X3460D01*
X3450Y3876D01*
X3460Y3886D01*
X3450D01*
X3440Y3896D01*
X3430Y3886D01*
X3420D01*
X3430Y3876D01*
X3420Y3866D01*
X3430D01*
X3440Y3856D01*
X3367Y3531D02*
X3377Y3541D01*
X3387D01*
X3377Y3551D01*
X3387Y3561D01*
X3377D01*
X3367Y3571D01*
X3357Y3561D01*
X3347D01*
X3357Y3551D01*
X3347Y3541D01*
X3357D01*
X3367Y3531D01*
X3669Y3333D02*
X3679Y3343D01*
X3689D01*
X3679Y3353D01*
X3689Y3363D01*
X3679D01*
X3669Y3373D01*
X3659Y3363D01*
X3649D01*
X3659Y3353D01*
X3649Y3343D01*
X3659D01*
X3669Y3333D01*
X6285Y2270D02*
X6295Y2280D01*
X6305D01*
X6295Y2290D01*
X6305Y2300D01*
X6295D01*
X6285Y2310D01*
X6275Y2300D01*
X6265D01*
X6275Y2290D01*
X6265Y2280D01*
X6275D01*
X6285Y2270D01*
X2833Y2808D02*
X2843Y2818D01*
X2853D01*
X2843Y2828D01*
X2853Y2838D01*
X2843D01*
X2833Y2848D01*
X2823Y2838D01*
X2813D01*
X2823Y2828D01*
X2813Y2818D01*
X2823D01*
X2833Y2808D01*
X2800Y2690D02*
X2810Y2700D01*
X2820D01*
X2810Y2710D01*
X2820Y2720D01*
X2810D01*
X2800Y2730D01*
X2790Y2720D01*
X2780D01*
X2790Y2710D01*
X2780Y2700D01*
X2790D01*
X2800Y2690D01*
X4780Y1525D02*
X4790Y1535D01*
X4800D01*
X4790Y1545D01*
X4800Y1555D01*
X4790D01*
X4780Y1565D01*
X4770Y1555D01*
X4760D01*
X4770Y1545D01*
X4760Y1535D01*
X4770D01*
X4780Y1525D01*
X7435Y2565D02*
X7445Y2575D01*
X7455D01*
X7445Y2585D01*
X7455Y2595D01*
X7445D01*
X7435Y2605D01*
X7425Y2595D01*
X7415D01*
X7425Y2585D01*
X7415Y2575D01*
X7425D01*
X7435Y2565D01*
X7180Y2730D02*
X7190Y2740D01*
X7200D01*
X7190Y2750D01*
X7200Y2760D01*
X7190D01*
X7180Y2770D01*
X7170Y2760D01*
X7160D01*
X7170Y2750D01*
X7160Y2740D01*
X7170D01*
X7180Y2730D01*
X3575Y3705D02*
X3585Y3715D01*
X3595D01*
X3585Y3725D01*
X3595Y3735D01*
X3585D01*
X3575Y3745D01*
X3565Y3735D01*
X3555D01*
X3565Y3725D01*
X3555Y3715D01*
X3565D01*
X3575Y3705D01*
X5012Y3947D02*
X5022Y3957D01*
X5032D01*
X5022Y3967D01*
X5032Y3977D01*
X5022D01*
X5012Y3987D01*
X5002Y3977D01*
X4992D01*
X5002Y3967D01*
X4992Y3957D01*
X5002D01*
X5012Y3947D01*
D70*
X1699Y3575D02*
G03*
X1699Y3575I-20J0D01*
G01*
X1701Y3375D02*
G03*
X1701Y3375I-20J0D01*
G01*
M02*
